<?xml version="1.0"?>
<svg version="1.1" xmlns="http://www.w3.org/2000/svg" width="400" height="200" style=""><path fill="#3239c7" d="M15.2734375,100.21875q0-0.19140625,0.41015625-0.328125t0.9296875-0.2255859375t1.0048828125-0.1298828125t0.6630859375-0.068359375q0-0.369140625,0.02734375-0.7451171875t0.150390625-0.669921875t0.3896484375-0.4716796875t0.7451171875-0.177734375q0.396484375,0,0.6015625,0.095703125t0.4375,0.396484375q0.0546875,0.1640625,0.0546875,0.314453125l0,0.4580078125t-0.02734375,0.4716796875q0.505859375-0.0546875,1.0048828125-0.1298828125t1.0048828125-0.0751953125q0.369140625,0,0.505859375,0.013671875t0.2734375,0.328125q0.109375,0.314453125-0.2666015625,0.478515625t-0.90234375,0.24609375t-1.0458984375,0.123046875t-0.62890625,0.041015625q-0.1640625,2.3515625-0.3349609375,4.662109375t-0.1708984375,4.689453125q0,1.06640625,0.068359375,2.201171875t0.3828125,2.146484375q0.08203125,0.314453125,0.2734375,0.587890625t0.19140625,0.587890625q0,0.19140625-0.150390625,0.30078125t-0.3623046875,0.1845703125t-0.423828125,0.0888671875t-0.3486328125,0.013671875q-0.861328125,0-1.3125-0.642578125t-0.6494140625-1.5380859375t-0.2119140625-1.8388671875t-0.013671875-1.53125q0-1.203125,0.0478515625-2.4609375t0.1162109375-2.48828125t0.19140625-2.40625t0.287109375-2.1875q-0.478515625,0.0546875-0.9365234375,0.123046875t-0.9365234375,0.068359375q-0.109375,0-0.2939453125-0.013671875t-0.3486328125-0.068359375t-0.2802734375-0.150390625t-0.1162109375-0.2734375z M25.72791015625,105.072265625q0-0.560546875,0.1982421875-0.943359375t0.8408203125-0.3828125q0.24609375,0,0.615234375,0.0751953125t0.423828125,0.3759765625q0.13671875,0.806640625,0.150390625,1.75t0.095703125,1.77734375q0.314453125-0.615234375,0.806640625-1.326171875t1.12109375-1.3125t1.3671875-0.998046875t1.50390625-0.396484375q0.0546875,0,0.205078125,0.041015625t0.2802734375,0.1162109375t0.1572265625,0.1708984375t-0.150390625,0.177734375q-0.0546875,0.1640625-0.232421875,0.1982421875t-0.314453125,0.0341796875q-0.08203125,0-0.259765625-0.068359375q-1.01171875,0.533203125-1.72265625,1.44921875t-1.162109375,2.0302734375t-0.65625,2.3515625t-0.205078125,2.4130859375q0,0.587890625-0.2666015625,0.7109375t-0.8544921875,0.123046875q-0.314453125,0-0.6630859375-0.068359375t-0.4853515625-0.4375q-0.24609375-0.779296875-0.4033203125-1.791015625t-0.2392578125-2.0849609375t-0.1162109375-2.1123046875t-0.0341796875-1.873046875z M35.4441015625,114.451171875l0.287109375-0.341796875q-0.0546875-2.296875-0.123046875-4.580078125t-0.068359375-4.5390625q0-2.802734375,0.3349609375-5.4208984375t0.6630859375-5.3662109375q0.02734375-0.1640625,0.1572265625-0.2666015625t0.3212890625-0.1708984375t0.3896484375-0.095703125t0.3623046875-0.02734375q0.21875,0,0.546875,0.08203125t0.65625,0.478515625q0,0.13671875,0.0205078125,0.2392578125t0.0205078125,0.2392578125q0,1.0390625-0.2802734375,2.228515625t-0.3759765625,2.283203125q-0.109375,1.33984375-0.150390625,2.65234375t-0.041015625,2.666015625l0.02734375,1.203125q0.2734375-0.341796875,0.779296875-0.875t1.09375-1.0322265625t1.17578125-0.8544921875t1.06640625-0.35546875q0.724609375,0,1.0048828125,0.41015625t0.2802734375,1.080078125q0,0.615234375-0.2666015625,1.28515625t-0.697265625,1.3056640625t-0.9775390625,1.1416015625t-1.080078125,0.751953125q0.724609375,0.90234375,1.4833984375,1.72265625t1.6611328125,1.544921875l0,0.314453125q-0.02734375,0.13671875-0.1708984375,0.205078125t-0.314453125,0.109375t-0.3349609375,0.0615234375t-0.2734375,0.0205078125q-0.669921875,0-1.2919921875-0.396484375t-1.162109375-0.970703125t-1.0185546875-1.216796875t-0.875-1.12109375q0.08203125,1.572265625,0.1845703125,3.1376953125t0.1025390625,3.1376953125q0,0.19140625-0.1708984375,0.3212890625t-0.396484375,0.1982421875t-0.4580078125,0.095703125t-0.3828125,0.02734375q-0.806640625,0-1.1416015625-0.2939453125t-0.5673828125-1.0185546875z M38.2468359375,108.01171875q0.341796875,0,0.8134765625-0.2939453125t0.9775390625-0.7314453125t0.943359375-0.9228515625t0.7041015625-0.9228515625t0.2666015625-0.7041015625t-0.369140625-0.2392578125q-0.13671875,0-0.560546875,0.396484375t-0.943359375,0.970703125t-1.0390625,1.244140625t-0.79296875,1.203125z M46.51380859375,103.25390625q0-1.2578125,0.1298828125-2.6591796875t0.6220703125-2.5908203125t1.4287109375-1.9755859375t2.5634765625-0.7861328125q0.560546875,0,1.203125,0.177734375t0.888671875,0.73828125q1.28515625,0.314453125,2.0986328125,1.1689453125t1.2646484375,1.9755859375t0.6015625,2.37890625t0.150390625,2.37890625q0,0.806640625-0.095703125,1.873046875t-0.3212890625,2.16015625t-0.62890625,2.1396484375t-0.9912109375,1.873046875t-1.4150390625,1.3330078125t-1.9208984375,0.505859375q-1.203125,0-2.0986328125-0.546875t-1.5107421875-1.4287109375t-0.998046875-2.0302734375t-0.6015625-2.337890625t-0.2939453125-2.32421875t-0.0751953125-2.0234375z M48.98841796875,102.40625q0,1.791015625,0.21875,3.7119140625t0.875,3.6025390625q0.341796875-1.654296875,0.7451171875-3.212890625t0.806640625-3.0693359375t0.79296875-3.0078125t0.7041015625-3.0009765625l-0.109375-0.068359375q-0.2734375,0.0546875-0.669921875,0.013671875t-0.451171875-0.396484375q-0.21875-0.02734375-0.478515625-0.1708984375t-0.109375-0.6767578125q-0.533203125,0-0.916015625,0.369140625t-0.62890625,0.943359375t-0.4033203125,1.28515625t-0.2392578125,1.408203125t-0.109375,1.298828125t-0.02734375,0.970703125z M51.13490234375,111.83984375q0.08203125,0.13671875,0.1982421875,0.2939453125t0.2392578125,0.30078125t0.2666015625,0.2392578125t0.3076171875,0.068359375q0.724609375-0.109375,1.244140625-0.62890625t0.8681640625-1.3056640625t0.546875-1.75t0.2939453125-1.94140625t0.123046875-1.8935546875t0.02734375-1.5859375q0-1.2578125-0.205078125-2.48828125t-0.79296875-2.32421875q-0.806640625,3.25390625-1.4697265625,6.5693359375t-1.6474609375,6.4462890625z M60.263203125,100.109375q0-0.95703125,0.587890625-1.818359375t1.4560546875-1.4970703125t1.8935546875-1.01171875t1.88671875-0.3759765625q1.01171875,0,1.7978515625,0.3623046875t1.3330078125,0.9775390625t0.8408203125,1.4697265625t0.2939453125,1.8115234375q0,1.736328125-0.6630859375,3.390625t-1.55859375,3.2333984375t-1.845703125,3.14453125t-1.5654296875,3.1376953125l0.95703125,0.02734375q0.423828125,0,0.8544921875-0.02734375t0.8271484375-0.1640625q0.478515625-0.451171875,1.2578125-0.451171875q0.314453125,0,0.7587890625,0.08203125t0.5263671875,0.478515625q-0.02734375,0-0.02734375,0.109375q0,0.533203125-0.642578125,0.7861328125t-1.4970703125,0.3486328125t-1.6953125,0.095703125l-1.2099609375,0l-0.7109375,0t-0.998046875-0.068359375t-0.8955078125-0.205078125t-0.4716796875-0.451171875q0.587890625-1.681640625,1.626953125-3.390625t2.0712890625-3.4111328125t1.791015625-3.4248046875t0.7587890625-3.486328125q0-0.341796875-0.1162109375-0.916015625t-0.396484375-1.12109375t-0.751953125-0.9228515625t-1.2099609375-0.3486328125q-0.669921875,0.0546875-1.244140625,0.4443359375t-1.0322265625,0.9501953125t-0.779296875,1.2236328125t-0.4716796875,1.2509765625q0,0.21875,0.0888671875,0.4443359375t0.0888671875,0.4443359375t-0.2939453125,0.2802734375t-0.4443359375,0.0615234375q-0.560546875,0-0.8681640625-0.46484375t-0.3076171875-0.998046875z M67.208515625,112.8515625q0.109375,0,0.150390625-0.02734375q-0.095703125,0-0.150390625,0.02734375z M73.15126953125,103.25390625q0-1.2578125,0.1298828125-2.6591796875t0.6220703125-2.5908203125t1.4287109375-1.9755859375t2.5634765625-0.7861328125q0.560546875,0,1.203125,0.177734375t0.888671875,0.73828125q1.28515625,0.314453125,2.0986328125,1.1689453125t1.2646484375,1.9755859375t0.6015625,2.37890625t0.150390625,2.37890625q0,0.806640625-0.095703125,1.873046875t-0.3212890625,2.16015625t-0.62890625,2.1396484375t-0.9912109375,1.873046875t-1.4150390625,1.3330078125t-1.9208984375,0.505859375q-1.203125,0-2.0986328125-0.546875t-1.5107421875-1.4287109375t-0.998046875-2.0302734375t-0.6015625-2.337890625t-0.2939453125-2.32421875t-0.0751953125-2.0234375z M75.62587890625,102.40625q0,1.791015625,0.21875,3.7119140625t0.875,3.6025390625q0.341796875-1.654296875,0.7451171875-3.212890625t0.806640625-3.0693359375t0.79296875-3.0078125t0.7041015625-3.0009765625l-0.109375-0.068359375q-0.2734375,0.0546875-0.669921875,0.013671875t-0.451171875-0.396484375q-0.21875-0.02734375-0.478515625-0.1708984375t-0.109375-0.6767578125q-0.533203125,0-0.916015625,0.369140625t-0.62890625,0.943359375t-0.4033203125,1.28515625t-0.2392578125,1.408203125t-0.109375,1.298828125t-0.02734375,0.970703125z M77.77236328125,111.83984375q0.08203125,0.13671875,0.1982421875,0.2939453125t0.2392578125,0.30078125t0.2666015625,0.2392578125t0.3076171875,0.068359375q0.724609375-0.109375,1.244140625-0.62890625t0.8681640625-1.3056640625t0.546875-1.75t0.2939453125-1.94140625t0.123046875-1.8935546875t0.02734375-1.5859375q0-1.2578125-0.205078125-2.48828125t-0.79296875-2.32421875q-0.806640625,3.25390625-1.4697265625,6.5693359375t-1.6474609375,6.4462890625z M86.9006640625,108.0390625q0-1.3125,0.2119140625-2.6591796875t0.451171875-2.70703125t0.451171875-2.7275390625t0.2119140625-2.748046875q0-0.13671875-0.013671875-0.2802734375t-0.013671875-0.2802734375q0-0.21875,0.3349609375-0.3759765625t0.6083984375-0.1572265625q0.369140625,0,0.5810546875,0.1572265625t0.3212890625,0.41015625t0.123046875,0.587890625t0.013671875,0.6630859375q-0.08203125,1.23046875-0.2529296875,2.4677734375t-0.3349609375,2.4677734375t-0.3076171875,2.4609375t-0.1435546875,2.4609375q0,0.109375,0.2255859375,0.1572265625t0.546875,0.0615234375t0.62890625,0.013671875l0.4716796875,0q0.587890625,0,1.1962890625-0.02734375t1.2236328125-0.02734375q0.08203125-2.5703125,0.123046875-5.140625t0.177734375-5.140625q0.02734375-0.396484375,0.013671875-0.8134765625t0.068359375-0.779296875t0.3076171875-0.587890625t0.7041015625-0.2255859375q0.13671875,0,0.3486328125,0.013671875t0.423828125,0.095703125t0.3623046875,0.2529296875t0.150390625,0.4443359375q0,1.3125,0.041015625,2.6044921875t0.041015625,2.6044921875q0,1.681640625-0.013671875,3.322265625t-0.013671875,3.294921875q0.123046875,0.0546875,0.287109375,0.1640625q0.13671875,0.13671875,0.13671875,0.24609375q0,0.19140625-0.13671875,0.2255859375t-0.287109375,0.1708984375l0,5.66015625q0,0.1640625-0.150390625,0.287109375t-0.3759765625,0.2119140625t-0.46484375,0.1162109375t-0.4306640625,0.02734375t-0.4443359375-0.02734375t-0.46484375-0.1162109375t-0.369140625-0.2119140625t-0.1572265625-0.287109375q0-1.33984375,0.0341796875-2.6865234375t0.0615234375-2.7275390625q-0.396484375,0.02734375-0.7724609375,0.041015625t-0.7724609375,0.013671875q-0.984375,0-1.9208984375-0.041015625t-1.9208984375-0.041015625q-0.642578125,0-0.8818359375-0.205078125t-0.2392578125-0.68359375z"/><path fill="#" d=""/></svg>
