<?xml version="1.0"?>
<svg version="1.1" xmlns="http://www.w3.org/2000/svg" width="100" height="40" style=""><path fill="#3232c7" d="M15.234375,20.1875q0-0.1640625,0.3515625-0.28125t0.796875-0.193359375t0.861328125-0.111328125t0.568359375-0.05859375q0-0.31640625,0.0234375-0.638671875t0.12890625-0.57421875t0.333984375-0.404296875t0.638671875-0.15234375q0.33984375,0,0.515625,0.08203125t0.375,0.33984375q0.046875,0.140625,0.046875,0.26953125l0,0.392578125t-0.0234375,0.404296875q0.43359375-0.046875,0.861328125-0.111328125t0.861328125-0.064453125q0.31640625,0,0.43359375,0.01171875t0.234375,0.28125q0.09375,0.26953125-0.228515625,0.41015625t-0.7734375,0.2109375t-0.896484375,0.10546875t-0.5390625,0.03515625q-0.140625,2.015625-0.287109375,3.99609375t-0.146484375,4.01953125q0,0.9140625,0.05859375,1.88671875t0.328125,1.83984375q0.0703125,0.26953125,0.234375,0.50390625t0.1640625,0.50390625q0,0.1640625-0.12890625,0.2578125t-0.310546875,0.158203125t-0.36328125,0.076171875t-0.298828125,0.01171875q-0.73828125,0-1.125-0.55078125t-0.556640625-1.318359375t-0.181640625-1.576171875t-0.01171875-1.3125q0-1.03125,0.041015625-2.109375t0.099609375-2.1328125t0.1640625-2.0625t0.24609375-1.875q-0.41015625,0.046875-0.802734375,0.10546875t-0.802734375,0.05859375q-0.09375,0-0.251953125-0.01171875t-0.298828125-0.05859375t-0.240234375-0.12890625t-0.099609375-0.234375z M24.1953515625,24.34765625q0-0.48046875,0.169921875-0.80859375t0.720703125-0.328125q0.2109375,0,0.52734375,0.064453125t0.36328125,0.322265625q0.1171875,0.69140625,0.12890625,1.5t0.08203125,1.5234375q0.26953125-0.52734375,0.69140625-1.13671875t0.9609375-1.125t1.171875-0.85546875t1.2890625-0.33984375q0.046875,0,0.17578125,0.03515625t0.240234375,0.099609375t0.134765625,0.146484375t-0.12890625,0.15234375q-0.046875,0.140625-0.19921875,0.169921875t-0.26953125,0.029296875q-0.0703125,0-0.22265625-0.05859375q-0.8671875,0.45703125-1.4765625,1.2421875t-0.99609375,1.740234375t-0.5625,2.015625t-0.17578125,2.068359375q0,0.50390625-0.228515625,0.609375t-0.732421875,0.10546875q-0.26953125,0-0.568359375-0.05859375t-0.416015625-0.375q-0.2109375-0.66796875-0.345703125-1.53515625t-0.205078125-1.787109375t-0.099609375-1.810546875t-0.029296875-1.60546875z M32.523515625,32.38671875l0.24609375-0.29296875q-0.046875-1.96875-0.10546875-3.92578125t-0.05859375-3.890625q0-2.40234375,0.287109375-4.646484375t0.568359375-4.599609375q0.0234375-0.140625,0.134765625-0.228515625t0.275390625-0.146484375t0.333984375-0.08203125t0.310546875-0.0234375q0.1875,0,0.46875,0.0703125t0.5625,0.41015625q0,0.1171875,0.017578125,0.205078125t0.017578125,0.205078125q0,0.890625-0.240234375,1.91015625t-0.322265625,1.95703125q-0.09375,1.1484375-0.12890625,2.2734375t-0.03515625,2.28515625l0.0234375,1.03125q0.234375-0.29296875,0.66796875-0.75t0.9375-0.884765625t1.0078125-0.732421875t0.9140625-0.3046875q0.62109375,0,0.861328125,0.3515625t0.240234375,0.92578125q0,0.52734375-0.228515625,1.1015625t-0.59765625,1.119140625t-0.837890625,0.978515625t-0.92578125,0.64453125q0.62109375,0.7734375,1.271484375,1.4765625t1.423828125,1.32421875l0,0.26953125q-0.0234375,0.1171875-0.146484375,0.17578125t-0.26953125,0.09375t-0.287109375,0.052734375t-0.234375,0.017578125q-0.57421875,0-1.107421875-0.33984375t-0.99609375-0.83203125t-0.873046875-1.04296875t-0.75-0.9609375q0.0703125,1.34765625,0.158203125,2.689453125t0.087890625,2.689453125q0,0.1640625-0.146484375,0.275390625t-0.33984375,0.169921875t-0.392578125,0.08203125t-0.328125,0.0234375q-0.69140625,0-0.978515625-0.251953125t-0.486328125-0.873046875z M34.925859375,26.8671875q0.29296875,0,0.697265625-0.251953125t0.837890625-0.626953125t0.80859375-0.791015625t0.603515625-0.791015625t0.228515625-0.603515625t-0.31640625-0.205078125q-0.1171875,0-0.48046875,0.33984375t-0.80859375,0.83203125t-0.890625,1.06640625t-0.6796875,1.03125z M42.0118359375,22.7890625q0-1.078125,0.111328125-2.279296875t0.533203125-2.220703125t1.224609375-1.693359375t2.197265625-0.673828125q0.48046875,0,1.03125,0.15234375t0.76171875,0.6328125q1.1015625,0.26953125,1.798828125,1.001953125t1.083984375,1.693359375t0.515625,2.0390625t0.12890625,2.0390625q0,0.69140625-0.08203125,1.60546875t-0.275390625,1.8515625t-0.5390625,1.833984375t-0.849609375,1.60546875t-1.212890625,1.142578125t-1.646484375,0.43359375q-1.03125,0-1.798828125-0.46875t-1.294921875-1.224609375t-0.85546875-1.740234375t-0.515625-2.00390625t-0.251953125-1.9921875t-0.064453125-1.734375z M44.1329296875,22.0625q0,1.53515625,0.1875,3.181640625t0.75,3.087890625q0.29296875-1.41796875,0.638671875-2.75390625t0.69140625-2.630859375t0.6796875-2.578125t0.603515625-2.572265625l-0.09375-0.05859375q-0.234375,0.046875-0.57421875,0.01171875t-0.38671875-0.33984375q-0.1875-0.0234375-0.41015625-0.146484375t-0.09375-0.580078125q-0.45703125,0-0.78515625,0.31640625t-0.5390625,0.80859375t-0.345703125,1.1015625t-0.205078125,1.20703125t-0.09375,1.11328125t-0.0234375,0.83203125z M45.9727734375,30.1484375q0.0703125,0.1171875,0.169921875,0.251953125t0.205078125,0.2578125t0.228515625,0.205078125t0.263671875,0.05859375q0.62109375-0.09375,1.06640625-0.5390625t0.744140625-1.119140625t0.46875-1.5t0.251953125-1.6640625t0.10546875-1.623046875t0.0234375-1.359375q0-1.078125-0.17578125-2.1328125t-0.6796875-1.9921875q-0.69140625,2.7890625-1.259765625,5.630859375t-1.412109375,5.525390625z M53.79703125,20.09375q0-0.8203125,0.50390625-1.55859375t1.248046875-1.283203125t1.623046875-0.8671875t1.6171875-0.322265625q0.8671875,0,1.541015625,0.310546875t1.142578125,0.837890625t0.720703125,1.259765625t0.251953125,1.552734375q0,1.48828125-0.568359375,2.90625t-1.3359375,2.771484375t-1.58203125,2.6953125t-1.341796875,2.689453125l0.8203125,0.0234375q0.36328125,0,0.732421875-0.0234375t0.708984375-0.140625q0.41015625-0.38671875,1.078125-0.38671875q0.26953125,0,0.650390625,0.0703125t0.451171875,0.41015625q-0.0234375,0-0.0234375,0.09375q0,0.45703125-0.55078125,0.673828125t-1.283203125,0.298828125t-1.453125,0.08203125l-1.037109375,0l-0.609375,0t-0.85546875-0.05859375t-0.767578125-0.17578125t-0.404296875-0.38671875q0.50390625-1.44140625,1.39453125-2.90625t1.775390625-2.923828125t1.53515625-2.935546875t0.650390625-2.98828125q0-0.29296875-0.099609375-0.78515625t-0.33984375-0.9609375t-0.64453125-0.791015625t-1.037109375-0.298828125q-0.57421875,0.046875-1.06640625,0.380859375t-0.884765625,0.814453125t-0.66796875,1.048828125t-0.404296875,1.072265625q0,0.1875,0.076171875,0.380859375t0.076171875,0.380859375t-0.251953125,0.240234375t-0.380859375,0.052734375q-0.48046875,0-0.744140625-0.3984375t-0.263671875-0.85546875z M59.75015625,31.015625q0.09375,0,0.12890625-0.0234375q-0.08203125,0-0.12890625,0.0234375z M64.8439453125,22.7890625q0-1.078125,0.111328125-2.279296875t0.533203125-2.220703125t1.224609375-1.693359375t2.197265625-0.673828125q0.48046875,0,1.03125,0.15234375t0.76171875,0.6328125q1.1015625,0.26953125,1.798828125,1.001953125t1.083984375,1.693359375t0.515625,2.0390625t0.12890625,2.0390625q0,0.69140625-0.08203125,1.60546875t-0.275390625,1.8515625t-0.5390625,1.833984375t-0.849609375,1.60546875t-1.212890625,1.142578125t-1.646484375,0.43359375q-1.03125,0-1.798828125-0.46875t-1.294921875-1.224609375t-0.85546875-1.740234375t-0.515625-2.00390625t-0.251953125-1.9921875t-0.064453125-1.734375z M66.9650390625,22.0625q0,1.53515625,0.1875,3.181640625t0.75,3.087890625q0.29296875-1.41796875,0.638671875-2.75390625t0.69140625-2.630859375t0.6796875-2.578125t0.603515625-2.572265625l-0.09375-0.05859375q-0.234375,0.046875-0.57421875,0.01171875t-0.38671875-0.33984375q-0.1875-0.0234375-0.41015625-0.146484375t-0.09375-0.580078125q-0.45703125,0-0.78515625,0.31640625t-0.5390625,0.80859375t-0.345703125,1.1015625t-0.205078125,1.20703125t-0.09375,1.11328125t-0.0234375,0.83203125z M68.8048828125,30.1484375q0.0703125,0.1171875,0.169921875,0.251953125t0.205078125,0.2578125t0.228515625,0.205078125t0.263671875,0.05859375q0.62109375-0.09375,1.06640625-0.5390625t0.744140625-1.119140625t0.46875-1.5t0.251953125-1.6640625t0.10546875-1.623046875t0.0234375-1.359375q0-1.078125-0.17578125-2.1328125t-0.6796875-1.9921875q-0.69140625,2.7890625-1.259765625,5.630859375t-1.412109375,5.525390625z M76.629140625,26.890625q0-1.125,0.181640625-2.279296875t0.38671875-2.3203125t0.38671875-2.337890625t0.181640625-2.35546875q0-0.1171875-0.01171875-0.240234375t-0.01171875-0.240234375q0-0.1875,0.287109375-0.322265625t0.521484375-0.134765625q0.31640625,0,0.498046875,0.134765625t0.275390625,0.3515625t0.10546875,0.50390625t0.01171875,0.568359375q-0.0703125,1.0546875-0.216796875,2.115234375t-0.287109375,2.115234375t-0.263671875,2.109375t-0.123046875,2.109375q0,0.09375,0.193359375,0.134765625t0.46875,0.052734375t0.5390625,0.01171875l0.404296875,0q0.50390625,0,1.025390625-0.0234375t1.048828125-0.0234375q0.0703125-2.203125,0.10546875-4.40625t0.15234375-4.40625q0.0234375-0.33984375,0.01171875-0.697265625t0.05859375-0.66796875t0.263671875-0.50390625t0.603515625-0.193359375q0.1171875,0,0.298828125,0.01171875t0.36328125,0.08203125t0.310546875,0.216796875t0.12890625,0.380859375q0,1.125,0.03515625,2.232421875t0.03515625,2.232421875q0,1.44140625-0.01171875,2.84765625t-0.01171875,2.82421875q0.10546875,0.046875,0.24609375,0.140625q0.1171875,0.1171875,0.1171875,0.2109375q0,0.1640625-0.1171875,0.193359375t-0.24609375,0.146484375l0,4.8515625q0,0.140625-0.12890625,0.24609375t-0.322265625,0.181640625t-0.3984375,0.099609375t-0.369140625,0.0234375t-0.380859375-0.0234375t-0.3984375-0.099609375t-0.31640625-0.181640625t-0.134765625-0.24609375q0-1.1484375,0.029296875-2.302734375t0.052734375-2.337890625q-0.33984375,0.0234375-0.662109375,0.03515625t-0.662109375,0.01171875q-0.84375,0-1.646484375-0.03515625t-1.646484375-0.03515625q-0.55078125,0-0.755859375-0.17578125t-0.205078125-0.5859375z"/><path fill="#" d=""/></svg>
